<svg id="Layer_1" data-name="Layer 1" xmlns="http://www.w3.org/2000/svg" viewBox="0 0 400 300" width="406" height="306" class="illustration styles_illustrationTablet__1DWOa"><title>_</title><ellipse cx="200" cy="235.56" rx="141.02" ry="16.86" fill="#e6e6e6" opacity="0.45"></ellipse><rect x="107.03" y="47.58" width="213.07" height="138.44" fill="#c9c9c9" opacity="0.27"></rect><polygon points="197.47 170.21 189.38 221.62 243.35 221.62 230.94 170.21 197.47 170.21" fill="#c9c9c9"></polygon><rect x="107.03" y="154.4" width="213.07" height="31.62" fill="#e6e6e6"></rect><circle cx="214.76" cy="168.32" r="8.56" fill="#a5a5a5"></circle><rect x="177.06" y="212.61" width="75.91" height="16.52" fill="#e6e6e6"></rect><path d="M266.6,54.12s4.52-3.82,8.07-1.16,1.14,13.46,8.87,11c0,0-8.4,7-14.28-4.41Z" fill="#24285b"></path><rect x="125.37" y="65.72" width="108.43" height="71.61" fill="#e6e6e6"></rect><rect x="122.52" y="137.33" width="114.13" height="4.56" fill="#a5a5a5"></rect><path d="M233.8,129.87v7.46H216.41c-13-11-7.91-34.5-8.06-38.84-.19-5.66,2.49-4,2.49-4l4.06,11,5.75,14.37Z" opacity="0.08"></path><path d="M270.2,61.52s3.07-.43,1.81-4.62-4.74-4-5.73-2.93Z" fill="#68e1fd"></path><path d="M261,59.25a22.86,22.86,0,0,0,1.44,5.91,1.84,1.84,0,0,0,2.45.88,4,4,0,0,0,2.54-3.6l.48-3.35a3.28,3.28,0,0,0-2.09-3.17C263.55,54.85,260.69,57.05,261,59.25Z" fill="#f4a28c"></path><polygon points="268.69 60.95 271.07 72.71 264.5 73.56 265.38 64.89 268.69 60.95" fill="#f4a28c"></polygon><path d="M261.39,61.53l-.74,1.58a.58.58,0,0,0,.54.83h1.42Z" fill="#f4a28c"></path><path d="M265.36,65.13a4.42,4.42,0,0,0,2-1.3s.76,2.52-2.26,3.79Z" fill="#ce8172" opacity="0.31"></path><path d="M268.44,61s-.24-1.39.82-1.48,1.42,1.91,0,2.37Z" fill="#f4a28c"></path><path d="M261.75,58.94a10.7,10.7,0,0,0,3.49-.41s1.21,4,4.52,4.61c0,0,2.36-6.38-1.64-8.29-3.34-1.6-5.86-3.07-8.16-.45A2.74,2.74,0,0,0,261.75,58.94Z" fill="#24285b"></path><path d="M256.24,108.89s-.21,25.28-17.33,27-27.13-32.17-27.13-32.17-2.92-3.43,0-5.71c0,0-2-5.32-.26-5.58s4.06,9.13,4.06,9.13,9.94,17.46,18.22,18.81,1.44-25.91,20.08-39.22S256.24,108.89,256.24,108.89Z" fill="#f4a28c"></path><path d="M265.42,60.67s0-1.64,1.3-1.53,1.51,2,0,2.93Z" fill="#f4a28c"></path><path d="M271.07,72.71l-6.57.85s-35.57,17.07-15.21,41.11a13.63,13.63,0,0,1,3.17,7.07l1.84,14.76H281S319.59,81.33,271.07,72.71Z" fill="#68e1fd"></path><path d="M270.88,86.38a17.84,17.84,0,0,0,2.76,22c10.24,10.72,4.3,20.07-7.36,12.73s-13.56,2.22-13.56,2.22l.69,6,18.17-.2,20.13.08,7.08-16.8Z" opacity="0.08"></path><rect x="244.85" y="94.73" width="20.63" height="27.38" transform="translate(531.97 124.02) rotate(160.2)" fill="#ffd200"></rect><path d="M254.22,114.86s-6.28,1.41-4.13,9.94L260.92,121Z" opacity="0.08"></path><polygon points="292.58 154.41 286.92 129.38 253.41 129.38 249.27 154.41 292.58 154.41" fill="#24285b"></polygon><path d="M270.88,86.38c-.42-7.89,8.74-12.58,15.14-7.95,8.64,6.25,20.9,16.89,17.56,44.53-4.06,33.52-46.09-1.22-46.09-1.22l1.74-4.42s23.1,14.44,29.3,5.38c1.91-2.79-.71-7-2.67-10.35C282.3,106.31,271.38,96,270.88,86.38Z" fill="#f4a28c"></path><path d="M259.23,117.32s-1.73-4.52-4.62-3.52-.8,7,2.88,7.35Z" fill="#f4a28c"></path><path d="M273.64,73.23s.91-2.84-4.33-3.43-9.43,1.63-7.71,5.34C261.6,75.14,265.56,78.29,273.64,73.23Z" fill="#68e1fd"></path><path d="M273.64,73.23s.91-2.84-4.33-3.43-9.43,1.63-7.71,5.34C261.6,75.14,265.56,78.29,273.64,73.23Z" fill="#fff" opacity="0.46"></path><rect x="257.15" y="117.03" width="3.48" height="6.62" transform="translate(384.49 376.72) rotate(-141.03)" fill="#24285b"></rect><rect x="188.06" y="78.46" width="24.85" height="3.07" opacity="0.08"></rect><rect x="140.05" y="78.46" width="45.63" height="3.07" opacity="0.08"></rect><rect x="140.05" y="88.51" width="11.76" height="3.07" opacity="0.08"></rect><rect x="156.4" y="88.51" width="41.36" height="3.07" opacity="0.08"></rect><rect x="140.05" y="98.55" width="28.1" height="3.07" opacity="0.08"></rect><rect x="172.06" y="98.55" width="24.85" height="3.07" opacity="0.08"></rect><rect x="140.05" y="108.59" width="12.95" height="3.07" opacity="0.08"></rect><rect x="155.21" y="108.59" width="33.36" height="3.07" opacity="0.08"></rect><path d="M290.06,224.61s-8.51-2.33-10.36-10.25c0,0,13.19-2.67,13.57,10.95Z" fill="#68e1fd" opacity="0.58"></path><path d="M291.11,223.76s-5.95-9.4-.72-18.2c0,0,10,6.37,5.58,18.22Z" fill="#68e1fd" opacity="0.73"></path><path d="M292.64,223.77s3.14-9.93,12.65-11.82c0,0,1.78,6.45-6.16,11.85Z" fill="#68e1fd"></path><polygon points="286.46 223.54 288.19 235.35 299.06 235.4 300.67 223.6 286.46 223.54" fill="#24285b"></polygon><path d="M113.78,144.8s19.08,5.16,28.25.91,8.08-24.2,8.08-24.2-.73-8.62-.36-9.12,1.55,0,1.41,3a2.52,2.52,0,0,1,2.47,1.92,3.67,3.67,0,0,1-.87,3.28s9.13,21.86-2.23,32.66-36.75,2.45-36.75,2.45Z" fill="#f4a28c"></path><path d="M117.32,129.8a21.06,21.06,0,0,1,.77,5.62,1.71,1.71,0,0,1-1.83,1.6,3.77,3.77,0,0,1-3.44-2.26L111.27,132a3.07,3.07,0,0,1,.73-3.47C113.64,126.83,116.87,127.77,117.32,129.8Z" fill="#f4a28c"></path><polygon points="111.91 132.69 109.23 143.57 115.33 144.62 114.84 136.49 111.91 132.69" fill="#f4a28c"></polygon><path d="M117.79,131.9,119,133a.55.55,0,0,1-.18.91l-1.24.48Z" fill="#f4a28c"></path><path d="M114.86,136.72a8.66,8.66,0,0,1-2.65-1.81s.12,4.47,2.88,5.78Z" fill="#ce8172" opacity="0.31"></path><path d="M113.93,132.9s-.27-1.29-1.22-1-.58,2.15.77,2.07Z" fill="#f4a28c"></path><path d="M112,131.57s-1.66-1-2.28.33,1.24,2.36,2.5,1.56A2.72,2.72,0,0,1,112,131.57Z" fill="#f4a28c"></path><rect x="85.95" y="204.64" width="39.6" height="28.3" transform="translate(211.49 437.58) rotate(-180)" fill="#e6e6e6"></rect><polygon points="115.09 232.94 117 208.02 124.94 209.23 127.31 218.79 125.55 232.94 115.09 232.94" opacity="0.08"></polygon><path d="M116.09,229.67s.85,2.36,3,2.54,2.69,2.26.77,2.81-6.86-1.93-6.86-1.93l.14-3.07Z" fill="#68e1fd"></path><path d="M115.85,144.5l-6.1-1.06s-20.28,0-23.83,7-2.81,32.8,8.92,54l24,.7s-1.34-15.59,3.14-24.08S142,164,115.85,144.5Z" fill="#68e1fd"></path><path d="M94.84,204.44l11.75-1.77a11.25,11.25,0,0,1,12.87,12.27l-1.54,14.93h-5.76l.5-14a5.29,5.29,0,0,0-6.13-5.42C101.53,211.28,95.34,210.93,94.84,204.44Z" fill="#24285b"></path><path d="M128.05,229.67s.85,2.36,3,2.54,2.69,2.26.77,2.81-6.86-1.93-6.86-1.93l.14-3.07Z" fill="#68e1fd"></path><path d="M96.9,152.91s6.66,5.84,5.32,12.28c-.21,1.05-.44,2.31-.66,3.68A36.78,36.78,0,0,0,110.19,199l4.2,4.8-19.55.65-1.67-3.27L84.05,186Z" opacity="0.08"></path><path d="M106.8,204.44l11.75-1.77a11.25,11.25,0,0,1,12.87,12.27l-1.54,14.93h-5.76l.5-14a5.29,5.29,0,0,0-6.13-5.42C113.49,211.28,107.3,210.93,106.8,204.44Z" fill="#24285b"></path><path d="M111,198l-14-3.47a5.34,5.34,0,0,1-4.35-6.85c2.45-8.09,6.26-22.75,5.28-33.2a6.87,6.87,0,0,0-12.42-3.43c-4.45,6.26-8.41,20.09-5,39.58a13.05,13.05,0,0,0,12,10.74L111,202.54s5.32,3.05,6.39-.84S111,198,111,198Z" fill="#f4a28c"></path><path d="M113.93,128.86l.12,0a6.46,6.46,0,0,0,1.19.35,2,2,0,0,0,1.94-1.41,2.75,2.75,0,0,0-.56-2.43c-1.53-1.93-4.19-1.85-6.24-.86a10.15,10.15,0,0,0-5.44,5.41,28.55,28.55,0,0,1-2.43,5,9.22,9.22,0,0,1-3.69,3.06,10,10,0,0,0,8.32,3.32,5.1,5.1,0,0,0,4.66-7.62c-.41-.59-2.15-1.42-.86-2.37.39-.28,1.07,0,1.06.45a6,6,0,0,1,.41-2.18,1.48,1.48,0,0,1,.44-.65A1.27,1.27,0,0,1,113.93,128.86Z" fill="#24285b"></path><rect x="118.06" y="192.64" width="50.64" height="45.45" fill="#ffd200"></rect><rect x="115.33" y="187.36" width="56.11" height="5.28" fill="#ffd200"></rect><path d="M168.7,192.64v10.05a23.53,23.53,0,0,1-2.24,1.49c-3.73,2.19-8,3.31-11.94,5.1-10,4.51-17.69,13.22-22.61,23-.95,1.89-1.81,3.83-2.58,5.79H118.06V192.64Z" opacity="0.08"></path><rect x="125.87" y="182.04" width="28.36" height="5.32" fill="#24285b"></rect><rect x="128.61" y="177.18" width="28.36" height="4.86" fill="#24285b"></rect><rect x="128.61" y="177.18" width="28.36" height="4.86" fill="#fff" opacity="0.46"></rect></svg>